<svg width="1460" height="730" viewBox="0 0 1460 730" fill="none" xmlns="http://www.w3.org/2000/svg">
<g opacity="0.7">
<g opacity="0.3" filter="url(#filter0_f_1550_1564)">
<path opacity="0.3" d="M585.872 285.662C613.746 281.985 641.126 253.601 669.141 253.349C676.364 253.881 693.751 247.617 705.511 218.314C734.228 193.096 751.614 102.587 786.312 85.7877C811.856 73.4207 842.532 60.2507 870.789 71.7107C892.569 80.5467 908.369 100.072 920.799 119.231C938.809 146.985 951.989 178.341 958.389 210.838C979.269 316.778 941.209 427.259 892.749 520.165C833.694 633.368 743.744 724.686 638.842 796.446C595.581 826.046 550.174 851.406 500.442 868.306C454.653 883.866 406.906 894.686 358.992 901.126C297.997 909.326 234.658 908.886 175.435 890.686C130.392 876.836 96.9188 845.556 72.1308 805.996C38.2438 751.926 36.9718 686.965 63.4548 628.888C79.7888 593.067 113.963 556.082 157.07 561.81C189.953 566.18 217.315 589.381 244.664 606.091C262.941 617.258 289.028 632.686 309.327 617.987C343.664 593.123 369.917 554.735 392.565 519.784C421.496 475.136 436.197 424.512 458.396 376.668C471.181 349.113 494.579 329.061 519.196 312.163C538.988 298.576 561.975 288.814 585.872 285.662Z" fill="#7928CA"/>
</g>
<g opacity="0.3" filter="url(#filter1_f_1550_1564)">
<path opacity="0.3" d="M616.618 197.816C633.33 206.901 659.608 202.274 675.033 213.289C678.773 216.455 690.777 219.95 708.876 208.602C734.625 206.239 780.167 163.649 805.835 168.273C824.732 171.676 846.759 176.684 857.649 194.201C866.049 207.706 866.919 224.676 866.089 240.107C864.899 262.459 859.619 284.856 850.189 305.182C819.432 371.447 754.633 416.734 691.135 448.263C613.765 486.68 528.208 500.823 442.252 498.321C406.805 497.29 371.87 493.085 337.937 482.532C306.695 472.815 276.267 459.729 247.492 444.177C210.862 424.379 176.387 398.926 151.239 365.389C132.112 339.882 126.253 309.445 128.44 277.94C131.429 234.869 156.594 198.827 194.202 177.6C217.397 164.507 250.815 157.88 272.115 178.174C288.364 193.655 294.096 217.239 302.404 237.268C307.957 250.653 316.086 269.477 333.041 269.517C361.723 269.585 391.366 259.037 417.67 248.934C451.271 236.027 479.466 214.186 510.655 196.852C528.619 186.868 549.402 185.213 569.595 185.769C585.831 186.216 602.292 190.027 616.618 197.816Z" fill="#0070F3"/>
</g>
<g opacity="0.8" filter="url(#filter2_f_1550_1564)">
<path opacity="0.8" d="M756.965 178.378C764.865 188.684 775.794 186.182 783.294 198.295C785.151 201.722 790.587 206.127 797.47 196.332C808.35 196.028 824.56 157.5 835.958 164.101C844.349 168.959 854.209 175.652 860.279 193.837C864.949 207.858 866.669 224.711 867.529 239.908C868.779 261.922 868.279 283.656 865.829 303.015C857.849 366.126 833.573 405.801 808.771 431.971C778.551 463.858 742.895 471.089 705.754 461.826C690.437 458.007 675.09 451.089 659.672 437.972C645.477 425.894 631.365 410.548 617.77 392.894C600.462 370.42 583.635 342.522 570.178 307.366C559.942 280.627 555.021 250.061 553.472 219.073C551.356 176.709 559.325 143.049 573.813 125.024C582.748 113.906 596.588 109.99 607.346 131.744C615.552 148.339 619.878 172.119 625.031 192.584C628.474 206.261 633.455 225.522 640.746 226.901C653.078 229.233 664.986 221.141 675.493 213.225C688.916 203.113 699.309 183.738 711.346 169.056C718.278 160.6 727.08 160.605 735.803 162.749C742.816 164.474 750.192 169.542 756.965 178.378Z" fill="#0070F3"/>
</g>
<g opacity="0.3" filter="url(#filter3_f_1550_1564)">
<path opacity="0.3" d="M1316.63 138.678C1323.54 162.507 1350.39 173.979 1354.55 199.588C1355.14 206.478 1362.67 219.428 1388.06 216.111C1412.53 230.336 1488.29 202.697 1506.79 226.471C1520.41 243.973 1535.4 265.802 1530.11 297.272C1526.03 321.536 1512.45 345.454 1498.69 366.105C1478.75 396.018 1455.22 423.223 1429.81 444.762C1346.96 514.978 1252.11 533.258 1170.03 533.507C1070.02 533.812 983.379 495.193 910.449 433.425C880.379 407.952 853.429 378.466 832.723 340.932C813.659 306.375 798.154 267.738 786.176 226.834C770.928 174.763 762.34 116.381 768.727 53.2158C773.585 5.17377 794.192 -40.6393 822.726 -82.4622C861.739 -139.639 914.159 -172.104 964.939 -175.763C996.249 -178.019 1031.03 -164.452 1032.47 -122.102C1033.57 -89.7952 1018.65 -53.4863 1008.97 -20.3173C1002.51 1.84874 993.699 33.2417 1008.47 44.8027C1033.45 64.3597 1068.24 69.9767 1099.74 73.9377C1139.99 78.9977 1183.06 68.1087 1224.94 65.4457C1249.06 63.9117 1268.6 75.7407 1285.76 90.2077C1299.56 101.841 1310.71 118.249 1316.63 138.678Z" fill="#F21361"/>
</g>
</g>
<defs>
<filter id="filter0_f_1550_1564" x="-205" y="-182.686" width="1419.24" height="1338.92" filterUnits="userSpaceOnUse" color-interpolation-filters="sRGB">
<feFlood flood-opacity="0" result="BackgroundImageFix"/>
<feBlend mode="normal" in="SourceGraphic" in2="BackgroundImageFix" result="shape"/>
<feGaussianBlur stdDeviation="125" result="effect1_foregroundBlur_1550_1564"/>
</filter>
<filter id="filter1_f_1550_1564" x="-121.994" y="-84.7344" width="1238.33" height="833.334" filterUnits="userSpaceOnUse" color-interpolation-filters="sRGB">
<feFlood flood-opacity="0" result="BackgroundImageFix"/>
<feBlend mode="normal" in="SourceGraphic" in2="BackgroundImageFix" result="shape"/>
<feGaussianBlur stdDeviation="125" result="effect1_foregroundBlur_1550_1564"/>
</filter>
<filter id="filter2_f_1550_1564" x="303.135" y="-133.966" width="815.055" height="849.529" filterUnits="userSpaceOnUse" color-interpolation-filters="sRGB">
<feFlood flood-opacity="0" result="BackgroundImageFix"/>
<feBlend mode="normal" in="SourceGraphic" in2="BackgroundImageFix" result="shape"/>
<feGaussianBlur stdDeviation="125" result="effect1_foregroundBlur_1550_1564"/>
</filter>
<filter id="filter3_f_1550_1564" x="516.595" y="-426" width="1264.6" height="1209.51" filterUnits="userSpaceOnUse" color-interpolation-filters="sRGB">
<feFlood flood-opacity="0" result="BackgroundImageFix"/>
<feBlend mode="normal" in="SourceGraphic" in2="BackgroundImageFix" result="shape"/>
<feGaussianBlur stdDeviation="125" result="effect1_foregroundBlur_1550_1564"/>
</filter>
</defs>
</svg>
