<svg width="1014" height="1014" viewBox="0 0 1014 1014" fill="none" xmlns="http://www.w3.org/2000/svg">
<circle cx="506.5" cy="506.5" r="140.75" stroke="url(#paint0_linear_1601_1334)" stroke-width="1.5"/>
<circle cx="506.5" cy="506.5" r="231.75" stroke="url(#paint1_linear_1601_1334)" stroke-width="1.5"/>
<circle cx="506.5" cy="506.5" r="377.75" stroke="url(#paint2_linear_1601_1334)" stroke-width="1.5"/>
<circle cx="507" cy="507" r="506.25" stroke="url(#paint3_linear_1601_1334)" stroke-width="1.5"/>
<circle cx="659.5" cy="332.5" r="11.5" fill="black"/>
<circle cx="659.5" cy="332.5" r="10.75" stroke="#0070F3" stroke-opacity="0.6" stroke-width="1.5"/>
<circle cx="285.5" cy="200.5" r="11.5" fill="black"/>
<circle cx="285.5" cy="200.5" r="10.75" stroke="#0070F3" stroke-opacity="0.6" stroke-width="1.5"/>
<circle cx="129.5" cy="526.5" r="11.5" fill="black"/>
<circle cx="129.5" cy="526.5" r="10.75" stroke="#7928CA" stroke-opacity="0.6" stroke-width="1.5"/>
<circle cx="882.5" cy="549.5" r="11.5" fill="black"/>
<circle cx="882.5" cy="549.5" r="10.75" stroke="#7928CA" stroke-opacity="0.6" stroke-width="1.5"/>
<circle cx="408.5" cy="407.5" r="11.5" fill="black"/>
<circle cx="408.5" cy="407.5" r="10.75" stroke="white" stroke-opacity="0.4" stroke-width="1.5"/>
<circle cx="670.5" cy="165.5" r="11.5" fill="black"/>
<circle cx="670.5" cy="165.5" r="10.75" stroke="white" stroke-opacity="0.4" stroke-width="1.5"/>
<defs>
<linearGradient id="paint0_linear_1601_1334" x1="506.5" y1="365" x2="506.5" y2="630" gradientUnits="userSpaceOnUse">
<stop stop-color="white" stop-opacity="0.4"/>
<stop offset="1" stop-color="white" stop-opacity="0"/>
</linearGradient>
<linearGradient id="paint1_linear_1601_1334" x1="506.5" y1="274" x2="506.5" y2="739" gradientUnits="userSpaceOnUse">
<stop stop-color="white" stop-opacity="0.4"/>
<stop offset="1" stop-color="white" stop-opacity="0"/>
</linearGradient>
<linearGradient id="paint2_linear_1601_1334" x1="506.5" y1="128" x2="506.5" y2="847.5" gradientUnits="userSpaceOnUse">
<stop stop-color="white" stop-opacity="0.4"/>
<stop offset="1" stop-color="white" stop-opacity="0"/>
</linearGradient>
<linearGradient id="paint3_linear_1601_1334" x1="507" y1="-2.5332e-07" x2="515.5" y2="1014" gradientUnits="userSpaceOnUse">
<stop stop-color="white" stop-opacity="0.4"/>
<stop offset="1" stop-color="white" stop-opacity="0"/>
</linearGradient>
</defs>
</svg>
